<svg xmlns="http://www.w3.org/2000/svg" version="1.1" xmlns:xlink="http://www.w3.org/1999/xlink" xmlns:svgjs="http://svgjs.dev/svgjs" width="1500" height="1500" viewBox="0 0 1500 1500"><rect width="1500" height="1500" fill="#ffffff"></rect><g transform="matrix(0.6666666666666666,0,0,0.6666666666666666,249.39393939393938,438.5856950067477)"><svg viewBox="0 0 396 247" data-background-color="#ffffff" preserveAspectRatio="xMidYMid meet" height="935" width="1500" xmlns="http://www.w3.org/2000/svg" xmlns:xlink="http://www.w3.org/1999/xlink"><g id="tight-bounds" transform="matrix(1,0,0,1,0.2400000000000091,-0.09999999999999432)"><svg viewBox="0 0 395.52 247.2" height="247.2" width="395.52"><g><svg></svg></g><g><svg viewBox="0 0 395.52 247.2" height="247.2" width="395.52"><g transform="matrix(1,0,0,1,114.8422109529454,37.08)"><svg viewBox="0 0 165.8355780941092 173.04" height="173.04" width="165.8355780941092"><g><svg viewBox="0 0 316.416 330.16211158819436" height="173.04" width="165.8355780941092"><g transform="matrix(1,0,0,1,0,232.90309519475176)"><svg viewBox="0 0 316.416 97.25901639344262" height="97.25901639344262" width="316.416"><g id="textblocktransform"><svg viewBox="0 0 316.416 97.25901639344262" height="97.25901639344262" width="316.416" id="textblock"><g><svg viewBox="0 0 316.416 97.25901639344262" height="97.25901639344262" width="316.416"><g transform="matrix(1,0,0,1,0,0)"><svg width="316.416" viewBox="0.8 -37.95 170.79 52.5" height="97.25901639344262" data-palette-color="#d69723"><path d="M11.2 0.7L11.2 0.7Q0.8 0.7 0.8-6.5L0.8-6.5Q0.8-7.5 1-8.65L1-8.65 2.05-14.85Q2.85-19.65 6.43-22.2 10-24.75 15.5-24.8L15.5-24.8Q26.15-24.8 26.15-17.4L26.15-17.4Q26.15-15.8 25.78-14.53 25.4-13.25 25-12.8L25-12.8 24.6-12.3 16.1-12.3Q17.35-13.4 17.35-14.9L17.35-14.9Q17.35-17.6 14.65-17.6L14.65-17.6Q13.05-17.6 11.9-16.65 10.75-15.7 10.4-13.75L10.4-13.75 9.75-10.1Q9.65-9.6 9.65-9.15L9.65-9.15Q9.65-6.5 12.95-6.5L12.95-6.5Q14.05-6.5 14.93-7.2 15.8-7.9 15.95-8.75L15.95-8.75 24.25-8.65Q22.6 0.7 11.2 0.7ZM54.55-6.4L54.55-6.4Q55.7-6.4 56.6-6.9L56.6-6.9 56.35-1.25Q54 0.7 51 0.7L51 0.7Q44.2 0.7 44.2-5L44.2-5Q44.2-6 44.4-7.15L44.4-7.15 45.5-13.3Q45.65-14.2 45.65-15.1L45.65-15.1Q45.65-17.5 43.12-17.5 40.6-17.5 39.2-15.8L39.2-15.8 36.4 0 27.9 0 34.6-37.95 43.1-37.95 40.25-21.8Q43-24.75 47.15-24.75L47.15-24.75Q52.2-24.75 53.7-22.5L53.7-22.5Q54.75-21 54.75-19.15 54.75-17.3 54.45-15.75L54.45-15.75 53.1-8.3Q53.05-8 53.05-7.75L53.05-7.75Q53.05-6.4 54.55-6.4ZM83-7.7L83-7.7Q83-6.4 84.32-6.4 85.65-6.4 86.55-6.9L86.55-6.9 86.3-1.25Q83.9 0.7 80.9 0.7L80.9 0.7Q75.4 0.7 74.8-3.3L74.8-3.3Q72.3 0.7 67.45 0.7L67.45 0.7Q59.25 0.7 59.25-6.35L59.25-6.35Q59.25-7.55 59.5-9L59.5-9 60.55-14.85Q61.35-19.35 64.22-22.03 67.1-24.7 71.72-24.7 76.35-24.7 78-22.55L78-22.55 78.25-24.05 85.85-24.05 83.05-8.3Q83-8 83-7.7ZM68.85-13.85L68.2-10.1Q68.1-9.65 68.1-8.85 68.1-8.05 68.85-7.28 69.6-6.5 71.37-6.5 73.15-6.5 74.45-7.9L74.45-7.9 75.95-16.3Q75.4-17.55 73.35-17.55L73.35-17.55Q69.5-17.55 68.85-13.85L68.85-13.85ZM100.34 0.7L100.34 0.7Q94.54 0.7 91.99-1.9L91.99-1.9Q90.09-3.8 90.09-7L90.09-7Q90.09-8.05 90.29-9.25L90.29-9.25 93.69-28.6 102.84-32.4 101.39-24.05 115.19-24.05 113.94-17 100.14-17 99.14-11.35Q98.94-10.4 98.94-9.65L98.94-9.65Q98.94-6.5 101.94-6.5L101.94-6.5Q103.54-6.5 104.62-7.85 105.69-9.2 106.09-11.45L106.09-11.45 114.39-11.45Q112.29 0.7 100.34 0.7ZM127.79 0.7L127.79 0.7Q121.99 0.7 119.44-1.9L119.44-1.9Q117.54-3.8 117.54-7L117.54-7Q117.54-8.05 117.74-9.25L117.74-9.25 121.14-28.6 130.29-32.4 128.84-24.05 142.64-24.05 141.39-17 127.59-17 126.59-11.35Q126.39-10.4 126.39-9.65L126.39-9.65Q126.39-6.5 129.39-6.5L129.39-6.5Q130.99-6.5 132.07-7.85 133.14-9.2 133.54-11.45L133.54-11.45 141.84-11.45Q139.74 0.7 127.79 0.7ZM156.44-24.05L154.09-10.75Q153.94-9.85 153.94-8.95L153.94-8.95Q153.94-6.55 156.64-6.55L156.64-6.55Q158.84-6.55 160.29-8.1L160.29-8.1 163.09-24.05 171.59-24.05 167.19 0.8Q166.09 7.15 162.16 10.85 158.24 14.55 153.19 14.55 148.14 14.55 145.91 12.7 143.69 10.85 143.69 7.85L143.69 7.85Q143.69 3.6 148.94 0.3L148.94 0.3Q146.09-0.4 145.34-2.55L145.34-2.55Q144.89-3.75 144.89-5.25 144.89-6.75 145.14-8.3L145.14-8.3 147.94-24.05 156.44-24.05ZM154.34 7.4L154.34 7.4Q157.59 7.4 158.59 1.5L158.59 1.5 159.09-1.4Q152.14 1.85 152.14 5.15L152.14 5.15Q152.14 6.15 152.71 6.78 153.29 7.4 154.34 7.4Z" opacity="1" transform="matrix(1,0,0,1,0,0)" fill="#000000" class="wordmark-text-0" data-fill-palette-color="primary" id="text-0"></path></svg></g></svg></g></svg></g></svg></g><g transform="matrix(1,0,0,1,64.71697195672249,0)"><svg viewBox="0 0 186.98205608655502 186.98205608655502" height="186.98205608655502" width="186.98205608655502"><g><svg></svg></g><g id="icon-0"><svg viewBox="0 0 186.98205608655502 186.98205608655502" height="186.98205608655502" width="186.98205608655502"><g><path d="M0 93.491c0-51.634 41.857-93.491 93.491-93.491 51.634 0 93.491 41.857 93.491 93.491 0 51.634-41.857 93.491-93.491 93.491-51.634 0-93.491-41.857-93.491-93.491zM93.491 178.211c46.79 0 84.72-37.93 84.72-84.72 0-46.79-37.93-84.72-84.72-84.72-46.79 0-84.72 37.93-84.72 84.72 0 46.79 37.93 84.72 84.72 84.72z" data-fill-palette-color="accent" fill="#000000" stroke="transparent"></path><ellipse rx="92.55611776284474" ry="92.55611776284474" cx="93.49102804327751" cy="93.49102804327751" fill="#000000" stroke="transparent" stroke-width="0" fill-opacity="1" data-fill-palette-color="accent"></ellipse></g><g transform="matrix(1,0,0,1,43.0373017010667,78.95491108346053)"><svg viewBox="0 0 100.90745268442161 29.072233919633966" height="29.072233919633966" width="100.90745268442161"><g><svg xmlns="http://www.w3.org/2000/svg" xmlns:xlink="http://www.w3.org/1999/xlink" version="1.1" x="0" y="0" viewBox="5.654999999999999 36.838 89.345 25.741" enable-background="new 0 0 100 100" xml:space="preserve" height="29.072233919633966" width="100.90745268442161" class="icon-cg-0" data-fill-palette-color="quaternary" id="cg-0"><g fill="#ffffff" data-fill-palette-color="quaternary"><g fill="#ffffff" data-fill-palette-color="quaternary"><g fill="#ffffff" data-fill-palette-color="quaternary"><path fill="#ffffff" d="M18.531 36.838c-7.111 0-12.876 5.76-12.876 12.869 0 7.106 5.765 12.872 12.876 12.872 7.102 0 12.871-5.766 12.871-12.872C31.402 42.598 25.633 36.838 18.531 36.838z" data-fill-palette-color="quaternary"></path></g><g fill="#ffffff" data-fill-palette-color="quaternary"><path fill="#ffffff" d="M50.324 36.838c-7.105 0-12.867 5.76-12.867 12.869 0 7.106 5.762 12.872 12.867 12.872 7.108 0 12.872-5.766 12.872-12.872C63.196 42.598 57.433 36.838 50.324 36.838z" data-fill-palette-color="quaternary"></path></g><g fill="#ffffff" data-fill-palette-color="quaternary"><path fill="#ffffff" d="M82.124 36.838c-7.103 0-12.871 5.76-12.871 12.869 0 7.106 5.769 12.872 12.871 12.872C89.23 62.579 95 56.813 95 49.707 95 42.598 89.23 36.838 82.124 36.838z" data-fill-palette-color="quaternary"></path></g></g></g></svg></g></svg></g></svg></g></svg></g><g></g></svg></g></svg></g><g><path d="M0 247.2v-247.2h395.52v247.2zM390.923 242.603v-238.006h-386.326v238.006z" fill="#000000" fill-rule="nonzero" stroke="none" stroke-width="1" stroke-linecap="butt" stroke-linejoin="miter" stroke-miterlimit="10" stroke-dasharray="" stroke-dashoffset="0" font-family="none" font-weight="none" font-size="none" text-anchor="none" style="mix-blend-mode: normal" data-fill-palette-color="tertiary"></path></g></svg></g><defs></defs></svg><rect width="395.52" height="247.2" fill="none" stroke="none" visibility="hidden"></rect></g></svg></g></svg>